<svg height="512" viewBox="0 0 192 192" width="512" xmlns="http://www.w3.org/2000/svg" xmlns:xlink="http://www.w3.org/1999/xlink"><linearGradient id="New_Gradient_Swatch_1" gradientUnits="userSpaceOnUse" x1="23.171" x2="184.829" y1="183.173" y2="21.515"><stop offset="0" stop-color="#ff85a6"/><stop offset="1" stop-color="#ffdc68"/></linearGradient><path d="m163.85.987a8 8 0 0 0 -8.145.263l-88 56a8 8 0 0 0 -3.705 6.75v83.219a40.275 40.275 0 0 0 -16-3.219c-17.673 0-32 10.745-32 24s14.327 24 32 24 32-10.745 32-24v-63.608l72-45.818v32.645a40.275 40.275 0 0 0 -16-3.219c-17.673 0-32 10.745-32 24s14.327 24 32 24 32-10.745 32-24v-104a8 8 0 0 0 -4.15-7.013zm-83.85 84.44v-17.035l72-45.819v17.035z" fill="url(#New_Gradient_Swatch_1)"/></svg>